<svg width="644" height="145" viewBox="0 0 644 145" fill="none" xmlns="http://www.w3.org/2000/svg">
<path d="M2.6882 19.9515C2.6882 16.8721 3.5486 14.1136 5.27724 11.6828C7.00587 9.25204 9.43065 7.18315 12.5516 5.48297C15.6725 3.7828 19.4114 2.48547 23.7603 1.591C28.1093 0.70336 32.9588 0.252717 38.3168 0.252717C42.8848 0.252717 47.1242 0.491692 51.0352 0.98331C54.9383 1.4681 58.4503 2.07579 61.579 2.80639C64.7 3.53699 67.3516 4.26759 69.5261 4.99819C71.7006 5.72879 73.2884 6.33648 74.2974 6.82127L71.8726 19.1595C69.6434 16.4829 66.9683 14.0931 63.8396 11.9833C61.1645 10.1192 57.8402 8.45999 53.8823 6.99879C49.9245 5.5376 45.2704 4.807 39.9125 4.807C35.8998 4.807 32.466 5.25082 29.6267 6.14529C26.7796 7.03976 24.4408 8.17322 22.6027 9.55248C20.0919 11.437 17.9565 14.455 17.8235 17.0974C17.7297 18.9137 18.3398 20.7163 19.1532 22.437C21.1947 26.7591 27.9841 29.4835 33.389 31.3748C38.0196 32.9999 43.0334 34.5362 48.4461 35.9906C53.851 37.4518 58.8727 39.2339 63.5032 41.3438C68.126 43.4536 71.9743 46.1029 75.0483 49.3052C78.1145 52.5075 79.6476 56.659 79.6476 61.7663C79.6476 65.9861 78.5838 69.5912 76.4719 72.5888C74.3522 75.5863 71.4815 78.0375 67.8522 79.9425C64.2228 81.8476 59.9599 83.2473 55.0556 84.1349C50.1435 85.0294 44.9028 85.4732 39.3258 85.4732C33.7488 85.4732 28.3909 85.0499 23.5961 84.1964C18.8012 83.3429 14.6713 82.3528 11.214 81.2194C7.08409 80.004 3.40781 78.6247 0.169556 77.0884L3.25137 67.4268C5.3711 69.8576 7.99142 71.9469 11.1123 73.6881C14.2333 75.4292 17.5263 76.8699 20.9835 78.0034C24.4408 79.1368 27.9294 79.9699 31.4414 80.4956C34.9534 81.0214 38.1604 81.2877 41.0623 81.2877C48.759 81.2877 54.7506 79.9699 59.0448 77.3342C65.1536 73.5857 66.8588 66.7167 63.9725 61.384C62.4395 58.5572 59.1856 55.8874 55.7909 54.1668C52.8342 52.6646 49.463 51.3536 45.6694 50.2133C41.8758 49.0799 38.0274 47.9464 34.1243 46.8062C30.2212 45.6727 26.3728 44.4163 22.5792 43.0371C18.7856 41.6578 15.4144 39.9577 12.4577 37.9297C9.50104 35.9018 7.13102 33.4505 5.34763 30.5759C3.56425 27.7014 2.67255 24.1508 2.67255 19.9379" fill="white"/>
<path d="M259.441 85.4801C251.971 85.4801 244.775 84.5856 237.861 82.8035C230.946 81.0214 224.837 78.3448 219.542 74.7806C214.246 71.2163 210.03 66.7781 206.909 61.4659C203.788 56.1606 202.224 49.9743 202.224 42.9278C202.224 35.8813 203.726 29.7976 206.737 24.4444C209.749 19.0912 213.816 14.6394 218.947 11.0683C224.078 7.50407 230.046 4.80701 236.852 2.98392C243.657 1.16084 250.79 0.245882 258.268 0.245882C263.954 0.245882 268.999 0.532659 273.411 1.09938C277.815 1.66611 281.522 2.31478 284.534 3.04537C287.991 3.85791 291.002 4.78652 293.568 5.83803L290.689 13.8063C290.322 14.8237 288.468 15.0559 287.67 14.1819C286.458 12.8436 284.987 11.5941 283.259 10.4401C280.92 8.82188 277.736 7.36068 273.724 6.06336C269.711 4.76603 264.517 4.11737 258.166 4.11737C247.974 4.11737 235.483 8.40536 230.078 14.892C226.902 18.6952 224.454 22.6486 222.796 26.9366C220.895 31.8391 219.948 37.1718 219.948 42.9278C219.948 48.6839 220.895 53.9141 222.796 58.8576C224.689 63.8011 227.364 68.0823 230.829 71.6875C236.507 77.6005 243.391 80.3659 253.637 81.3764C258.69 81.8749 263.821 81.8066 268.882 81.3423C273.356 80.9326 279.598 80.2566 282.523 77.7781V42.8801H273.325C264.643 42.8801 255.913 43.317 247.137 44.1979C246.386 44.273 245.722 43.8565 245.722 43.3034V39.1724H299.591V79.9016C295.351 80.9531 291.002 81.8885 286.544 82.701C282.641 83.3497 278.315 83.9779 273.575 84.5856C268.835 85.1933 264.119 85.4937 259.441 85.4937" fill="white"/>
<path d="M375.987 0.013659H357.668C357.089 0.013659 356.714 0.471134 357.011 0.833019C358.09 2.16448 358.02 5.03226 356.244 8.76719L320.248 84.5104H332.474C332.982 84.5104 333.162 84.0529 332.755 83.8344C331.324 83.0492 330.589 81.6699 330.346 80.2019C329.853 77.2727 330.855 74.7259 332.153 71.9878C332.153 71.9878 338.512 58.6117 338.536 58.6117L342.228 50.9439L362.267 8.76719L382.158 50.9439C382.158 50.9439 386.335 59.7042 386.359 59.7042C386.359 59.7042 388.165 63.5416 388.173 63.5484L389.378 66.1021C371.083 57.3485 341.312 60.2368 341.312 60.2368L339.983 63.1319C379.851 62.8587 398.06 84.4967 398.06 84.4967H415.964L375.979 0L375.987 0.013659Z" fill="white"/>
<path d="M603.353 0.013659H585.034C584.455 0.013659 584.08 0.471134 584.377 0.833019C585.456 2.16448 585.386 5.03226 583.61 8.76719L547.614 84.5104H559.84C560.348 84.5104 560.528 84.0529 560.121 83.8344C558.69 83.0492 557.955 81.6699 557.712 80.2019C557.219 77.2727 558.221 74.7259 559.519 71.9878C559.519 71.9878 565.878 58.6117 565.902 58.6117L569.594 50.9439L589.633 8.76719L609.524 50.9439C609.524 50.9439 613.701 59.7042 613.725 59.7042C613.725 59.7042 615.531 63.5416 615.539 63.5484L616.744 66.1021C598.449 57.3485 568.679 60.2368 568.679 60.2368L567.349 63.1319C607.217 62.8587 625.426 84.4967 625.426 84.4967H643.33L603.345 0L603.353 0.013659Z" fill="white"/>
<path d="M499.846 61.9506L488.207 51.9817L503.843 44.6484C505.361 43.911 506.792 43.0848 508.137 42.1904C511.329 40.0873 513.879 37.5951 515.842 34.7068C517.79 31.8391 518.76 28.7255 518.76 25.4071C518.76 21.5219 517.657 18.0738 515.412 15.0831C513.19 12.0788 510.171 9.54559 506.378 7.4767C502.584 5.40781 498.235 3.85785 493.338 2.7995C488.426 1.74799 483.287 1.20857 477.937 1.20857H433.658C432.907 1.20857 432.5 1.84358 432.993 2.25326C434.487 3.50279 436.622 5.76286 436.622 8.4531V84.4899H457.608C458.625 84.4899 459.118 83.5886 458.375 83.0834C456.325 81.67 453.674 79.3143 453.674 76.6104V4.9435C463.342 4.9435 473.447 4.41775 482.943 5.88577C491.101 7.14895 496.467 11.2048 499.526 16.7765C500.973 19.4599 501.7 22.3276 501.7 25.4071C501.7 28.4865 500.973 31.3748 499.526 34.0445C498.008 36.8099 496.639 38.4554 493.636 40.538C490.554 42.6751 487.316 44.6826 484.062 46.6764L458.437 62.0531V65.9246L474.644 58.3318L505.369 84.4968H526.957L499.838 61.9438" fill="white"/>
<path d="M181.574 1.22908H107.799V84.5105H181.574V77.1157C181.574 76.3988 180.526 75.9686 179.666 76.31C178.469 76.7811 177.1 77.225 175.552 77.6346C173.432 78.2014 170.702 78.7134 167.354 79.1573C164.006 79.6011 159.83 79.8264 154.808 79.8264H124.858V5.78337H154.808C159.83 5.78337 164.006 6.0087 167.354 6.45252C170.702 6.89634 173.432 7.40844 175.552 7.97516C176.92 8.33705 178.156 8.72624 179.251 9.14275C180.315 9.5456 181.574 8.96522 181.574 8.09806V1.22908Z" fill="white"/>
<path d="M130.623 39.9303C130.028 40.3946 129.34 41.0296 129.457 41.494C129.582 42.0129 131.037 41.3164 131.452 41.214C132.093 41.0501 132.758 40.934 133.431 40.8862C134.659 40.7975 135.871 40.934 137.029 41.2413C139.618 41.9241 141.8 43.2692 144.006 44.4232C148.206 46.6081 152.712 48.2673 157.937 48.6224C162.818 48.9501 167.91 48.1513 171.03 45.2152C171.907 44.389 172.65 43.4536 173.189 42.484C173.44 42.0334 174.253 40.1215 173.252 40.0464C172.869 40.0191 172.086 40.5107 171.781 40.6473C171.179 40.9136 170.577 41.1935 169.959 41.4393C168.645 41.9651 167.253 42.3406 165.759 42.4567C156.662 43.1531 151.468 37.2469 143.059 36.6256C139.899 36.3934 136.591 36.8919 133.861 38.0799C132.922 38.4896 131.999 38.9471 131.209 39.5002C131.061 39.6026 130.85 39.7528 130.631 39.9235" fill="white"/>
<path d="M167.17 129.559C167.17 128.849 167.343 128.21 167.697 127.649C168.051 127.088 168.546 126.61 169.184 126.217C169.821 125.823 170.584 125.526 171.473 125.32C172.362 125.113 173.353 125.01 174.447 125.01C175.383 125.01 176.248 125.068 177.043 125.178C177.845 125.288 178.561 125.43 179.199 125.597C179.836 125.765 180.379 125.933 180.827 126.101C181.275 126.268 181.598 126.41 181.803 126.52L181.323 128.849C180.866 128.23 180.316 127.681 179.678 127.191C179.128 126.759 178.451 126.378 177.641 126.043C176.831 125.707 175.879 125.539 174.785 125.539C173.967 125.539 173.259 125.643 172.685 125.849C172.102 126.055 171.623 126.314 171.245 126.636C170.867 126.952 170.592 127.314 170.403 127.72C170.222 128.12 170.128 128.52 170.128 128.914C170.128 129.72 170.442 130.372 171.072 130.881C171.701 131.385 172.488 131.823 173.432 132.197C174.376 132.572 175.407 132.926 176.516 133.262C177.617 133.597 178.648 134.01 179.592 134.494C180.536 134.978 181.323 135.591 181.952 136.333C182.581 137.068 182.896 138.03 182.896 139.21C182.896 140.185 182.676 141.017 182.243 141.707C181.81 142.398 181.22 142.965 180.481 143.404C179.741 143.843 178.868 144.165 177.861 144.372C176.854 144.578 175.784 144.681 174.643 144.681C173.503 144.681 172.409 144.585 171.426 144.385C170.442 144.191 169.601 143.959 168.893 143.701C168.051 143.423 167.296 143.101 166.635 142.746L167.288 140.92C167.72 141.481 168.255 141.965 168.893 142.365C169.53 142.765 170.206 143.101 170.914 143.359C171.623 143.623 172.331 143.81 173.054 143.933C173.77 144.056 174.431 144.12 175.021 144.12C176.595 144.12 177.822 143.817 178.695 143.204C179.576 142.598 180.017 141.714 180.017 140.552C180.017 139.823 179.836 139.21 179.466 138.714C179.104 138.217 178.616 137.798 178.011 137.449C177.405 137.101 176.713 136.797 175.942 136.539C175.163 136.281 174.376 136.017 173.581 135.752C172.779 135.488 171.992 135.197 171.221 134.881C170.442 134.565 169.758 134.172 169.152 133.701C168.546 133.23 168.059 132.668 167.697 132.004C167.335 131.339 167.146 130.52 167.146 129.546" fill="white"/>
<path d="M190.094 125.236H205.183V126.778C204.861 126.591 204.452 126.423 203.948 126.275C203.516 126.146 202.957 126.023 202.273 125.926C201.588 125.823 200.731 125.771 199.708 125.771H193.579V133.907H203.807L204.184 134.778C203.98 134.72 203.704 134.668 203.366 134.623C203.028 134.578 202.666 134.539 202.304 134.514C201.942 134.481 201.58 134.468 201.226 134.455C200.872 134.449 200.597 134.443 200.385 134.443H193.579V143.927H199.708C200.731 143.927 201.588 143.875 202.273 143.772C202.957 143.668 203.516 143.552 203.948 143.423C204.452 143.275 204.861 143.107 205.183 142.92V144.462H190.094V125.236Z" fill="white"/>
<path d="M224.175 137.946L219.588 126.978L214.97 137.946H224.175ZM214.734 138.481L213.436 141.565C213.027 142.481 212.752 143.449 212.618 144.456H211.351L219.565 124.952H222.405L230.578 144.456H226.92L224.529 138.733C224.277 138.694 223.994 138.656 223.671 138.623C223.349 138.585 223.034 138.559 222.711 138.539C222.389 138.52 222.09 138.507 221.807 138.494C221.523 138.488 221.287 138.481 221.106 138.481H214.734Z" fill="white"/>
<path d="M236.896 129.559C236.896 128.849 237.069 128.21 237.423 127.649C237.777 127.088 238.272 126.61 238.91 126.217C239.547 125.823 240.31 125.526 241.199 125.32C242.088 125.113 243.079 125.01 244.173 125.01C245.109 125.01 245.974 125.068 246.769 125.178C247.571 125.288 248.287 125.43 248.925 125.597C249.562 125.765 250.105 125.933 250.553 126.101C251.001 126.268 251.324 126.41 251.529 126.52L251.049 128.849C250.592 128.23 250.042 127.681 249.404 127.191C248.854 126.759 248.177 126.378 247.367 126.043C246.557 125.707 245.605 125.539 244.511 125.539C243.693 125.539 242.985 125.643 242.411 125.849C241.828 126.055 241.349 126.314 240.971 126.636C240.593 126.952 240.318 127.314 240.129 127.72C239.948 128.12 239.854 128.52 239.854 128.914C239.854 129.72 240.168 130.372 240.798 130.881C241.427 131.385 242.214 131.823 243.158 132.197C244.102 132.572 245.133 132.926 246.234 133.262C247.343 133.597 248.366 134.01 249.31 134.494C250.254 134.978 251.041 135.591 251.67 136.333C252.3 137.068 252.614 138.03 252.614 139.21C252.614 140.185 252.394 141.017 251.961 141.707C251.529 142.398 250.939 142.965 250.199 143.404C249.46 143.843 248.586 144.165 247.579 144.372C246.572 144.578 245.502 144.681 244.362 144.681C243.221 144.681 242.127 144.585 241.144 144.385C240.161 144.191 239.319 143.959 238.611 143.701C237.769 143.423 237.014 143.101 236.353 142.746L237.006 140.92C237.439 141.481 237.974 141.965 238.611 142.365C239.248 142.765 239.925 143.101 240.633 143.359C241.341 143.623 242.049 143.81 242.772 143.933C243.488 144.056 244.149 144.12 244.739 144.12C246.313 144.12 247.54 143.817 248.413 143.204C249.294 142.598 249.735 141.714 249.735 140.552C249.735 139.823 249.554 139.21 249.184 138.714C248.822 138.217 248.335 137.798 247.729 137.449C247.123 137.101 246.431 136.797 245.66 136.539C244.889 136.281 244.094 136.017 243.3 135.752C242.497 135.488 241.71 135.197 240.939 134.881C240.168 134.565 239.476 134.172 238.87 133.701C238.265 133.23 237.777 132.668 237.415 132.004C237.045 131.339 236.864 130.52 236.864 129.546" fill="white"/>
<path d="M263.314 125.236H259.821V144.456H263.314V125.236Z" fill="white"/>
<path d="M275.012 125.771V143.927H277.75C279.252 143.927 280.566 143.662 281.683 143.127C282.8 142.597 283.721 141.894 284.452 141.023C285.184 140.152 285.727 139.178 286.081 138.094C286.435 137.01 286.608 135.914 286.608 134.81C286.608 133.707 286.435 132.643 286.081 131.565C285.727 130.488 285.192 129.52 284.476 128.662C283.76 127.804 282.847 127.101 281.738 126.571C280.629 126.036 279.323 125.771 277.82 125.771H275.012ZM271.519 144.456V125.236H279.323C281.007 125.236 282.525 125.488 283.854 125.991C285.192 126.494 286.325 127.184 287.261 128.055C288.197 128.926 288.913 129.946 289.416 131.113C289.92 132.281 290.172 133.52 290.172 134.83C290.172 136.139 289.92 137.378 289.416 138.546C288.913 139.714 288.197 140.739 287.261 141.617C286.325 142.494 285.192 143.185 283.854 143.694C282.517 144.197 281.007 144.449 279.323 144.449H271.519V144.456Z" fill="white"/>
<path d="M297.528 125.236H312.617V126.778C312.294 126.591 311.885 126.423 311.382 126.275C310.949 126.146 310.39 126.023 309.706 125.926C309.021 125.823 308.164 125.771 307.141 125.771H301.013V133.907H311.24L311.618 134.778C311.413 134.72 311.138 134.668 310.799 134.623C310.461 134.578 310.099 134.539 309.737 134.514C309.375 134.481 309.014 134.468 308.66 134.455C308.305 134.449 308.03 134.443 307.818 134.443H301.013V143.927H307.141C308.164 143.927 309.021 143.875 309.706 143.772C310.39 143.668 310.949 143.552 311.382 143.423C311.885 143.275 312.294 143.107 312.617 142.92V144.462H297.528V125.236Z" fill="white"/>
<path d="M336.289 125.771V135.901H339.711C340.694 135.901 341.576 135.772 342.362 135.507C343.149 135.243 343.825 134.888 344.384 134.43C344.943 133.972 345.367 133.436 345.666 132.817C345.965 132.197 346.115 131.533 346.115 130.823C346.115 130.113 345.965 129.449 345.666 128.83C345.367 128.21 344.943 127.681 344.384 127.23C343.825 126.784 343.149 126.423 342.362 126.165C341.576 125.901 340.702 125.771 339.742 125.771H336.289ZM336.289 136.43V144.456H332.796V125.236H341.245C342.339 125.236 343.385 125.359 344.392 125.604C345.399 125.849 346.288 126.204 347.059 126.681C347.838 127.159 348.451 127.746 348.908 128.436C349.364 129.126 349.592 129.926 349.592 130.823C349.592 131.591 349.395 132.307 348.994 132.972C348.593 133.636 348.074 134.21 347.421 134.694C346.768 135.178 346.028 135.572 345.194 135.855C344.36 136.146 343.503 136.307 342.614 136.346L340.458 136.43L341.481 136.597C342.008 136.688 342.527 136.868 343.054 137.126C343.582 137.391 344.022 137.681 344.392 137.997L351.268 144.449H346.854L339.672 137.546C339.326 137.21 338.885 136.939 338.334 136.733C337.784 136.526 337.249 136.423 336.729 136.423H336.281L336.289 136.43Z" fill="white"/>
<path d="M357.608 125.236H372.698V126.778C372.375 126.591 371.966 126.423 371.462 126.275C371.03 126.146 370.471 126.023 369.787 125.926C369.102 125.823 368.245 125.771 367.222 125.771H361.094V133.907H371.321L371.698 134.778C371.494 134.72 371.219 134.668 370.88 134.623C370.542 134.578 370.18 134.539 369.818 134.514C369.456 134.481 369.094 134.468 368.74 134.455C368.386 134.449 368.111 134.443 367.899 134.443H361.094V143.927H367.222C368.245 143.927 369.102 143.875 369.787 143.772C370.471 143.668 371.03 143.552 371.462 143.423C371.966 143.275 372.375 143.107 372.698 142.92V144.462H357.608V125.236Z" fill="white"/>
<path d="M379.707 129.559C379.707 128.849 379.88 128.21 380.234 127.649C380.588 127.088 381.084 126.61 381.721 126.217C382.359 125.823 383.122 125.526 384.011 125.32C384.9 125.113 385.891 125.01 386.984 125.01C387.921 125.01 388.786 125.068 389.581 125.178C390.383 125.288 391.099 125.43 391.736 125.597C392.373 125.765 392.916 125.933 393.365 126.101C393.813 126.268 394.136 126.41 394.34 126.52L393.86 128.849C393.404 128.23 392.853 127.681 392.216 127.191C391.673 126.759 390.989 126.378 390.178 126.043C389.368 125.707 388.416 125.539 387.323 125.539C386.504 125.539 385.796 125.643 385.222 125.849C384.64 126.055 384.16 126.314 383.782 126.636C383.405 126.952 383.13 127.314 382.941 127.72C382.76 128.12 382.665 128.52 382.665 128.914C382.665 129.72 382.98 130.372 383.602 130.881C384.231 131.385 385.018 131.823 385.962 132.197C386.906 132.572 387.936 132.926 389.046 133.262C390.155 133.597 391.178 134.01 392.122 134.494C393.066 134.978 393.852 135.591 394.482 136.333C395.111 137.068 395.426 138.03 395.426 139.21C395.426 140.185 395.205 141.017 394.781 141.707C394.348 142.398 393.758 142.965 393.018 143.404C392.279 143.843 391.406 144.165 390.399 144.372C389.392 144.578 388.322 144.681 387.181 144.681C386.04 144.681 384.947 144.585 383.963 144.385C382.98 144.191 382.138 143.959 381.43 143.701C380.588 143.423 379.833 143.101 379.172 142.746L379.825 140.92C380.258 141.481 380.793 141.965 381.438 142.365C382.075 142.765 382.752 143.101 383.46 143.359C384.168 143.623 384.876 143.81 385.6 143.933C386.316 144.056 386.977 144.12 387.567 144.12C389.14 144.12 390.367 143.817 391.24 143.204C392.122 142.598 392.562 141.714 392.562 140.552C392.562 139.823 392.381 139.21 392.011 138.714C391.65 138.217 391.162 137.798 390.556 137.449C389.95 137.101 389.258 136.797 388.487 136.539C387.716 136.281 386.921 136.017 386.127 135.752C385.324 135.488 384.538 135.197 383.767 134.881C382.988 134.565 382.303 134.172 381.698 133.701C381.092 133.23 380.604 132.668 380.242 132.004C379.873 131.339 379.692 130.52 379.692 129.546" fill="white"/>
<path d="M413.339 125.52C412.175 125.52 411.113 125.759 410.145 126.236C409.177 126.714 408.336 127.365 407.628 128.197C406.92 129.03 406.369 130.017 405.983 131.159C405.598 132.301 405.401 133.533 405.401 134.862C405.401 136.191 405.59 137.398 405.983 138.539C406.369 139.681 406.92 140.669 407.628 141.501C408.336 142.333 409.17 142.985 410.145 143.469C411.113 143.946 412.183 144.185 413.339 144.185C414.496 144.185 415.573 143.946 416.557 143.469C417.54 142.991 418.374 142.333 419.074 141.501C419.767 140.669 420.317 139.681 420.719 138.539C421.12 137.398 421.316 136.172 421.316 134.862C421.316 133.552 421.112 132.301 420.719 131.159C420.317 130.017 419.774 129.03 419.074 128.197C418.374 127.365 417.54 126.714 416.557 126.236C415.573 125.759 414.503 125.52 413.339 125.52ZM413.339 144.681C411.813 144.681 410.342 144.475 408.941 144.062C407.541 143.649 406.306 143.036 405.244 142.21C404.182 141.385 403.34 140.365 402.711 139.139C402.081 137.914 401.775 136.488 401.775 134.862C401.775 133.236 402.089 131.81 402.711 130.585C403.34 129.359 404.182 128.333 405.244 127.514C406.306 126.694 407.533 126.068 408.941 125.649C410.342 125.23 411.813 125.017 413.339 125.017C414.865 125.017 416.36 125.23 417.753 125.649C419.145 126.068 420.372 126.694 421.45 127.514C422.52 128.339 423.37 129.365 423.999 130.585C424.628 131.81 424.943 133.236 424.943 134.862C424.943 136.488 424.628 137.914 423.999 139.139C423.37 140.365 422.52 141.391 421.45 142.21C420.38 143.036 419.145 143.649 417.753 144.062C416.36 144.475 414.889 144.681 413.339 144.681Z" fill="white"/>
<path d="M435.784 125.771V135.901H439.206C440.19 135.901 441.071 135.772 441.857 135.507C442.644 135.243 443.313 134.888 443.879 134.43C444.438 133.972 444.863 133.436 445.162 132.817C445.461 132.197 445.61 131.533 445.61 130.823C445.61 130.113 445.461 129.449 445.162 128.83C444.863 128.21 444.438 127.681 443.879 127.23C443.321 126.784 442.644 126.423 441.857 126.165C441.071 125.901 440.197 125.771 439.238 125.771H435.784ZM435.784 144.456H432.291V125.236H440.74C441.834 125.236 442.88 125.359 443.887 125.604C444.894 125.849 445.783 126.204 446.554 126.681C447.325 127.159 447.947 127.746 448.403 128.436C448.859 129.126 449.087 129.926 449.087 130.823C449.087 131.591 448.891 132.307 448.489 132.972C448.088 133.636 447.569 134.21 446.916 134.694C446.263 135.178 445.523 135.572 444.69 135.855C443.856 136.146 442.998 136.307 442.109 136.346L439.954 136.43L440.976 136.597C441.503 136.688 442.023 136.868 442.55 137.126C443.077 137.391 443.517 137.681 443.887 137.997L450.763 144.449H446.35L439.167 137.546C438.821 137.21 438.38 136.939 437.829 136.733C437.279 136.526 436.744 136.423 436.225 136.423H435.784V144.456Z" fill="white"/>
<path d="M465.451 125.772V144.456H461.997V125.772H459.842C459.496 125.772 459.071 125.785 458.559 125.817C458.048 125.843 457.529 125.901 457.002 125.985C456.475 126.068 455.979 126.172 455.515 126.294C455.051 126.417 454.665 126.578 454.366 126.785V125.243H473.082V126.785C472.783 126.578 472.405 126.417 471.933 126.294C471.469 126.172 470.974 126.068 470.447 125.985C469.919 125.901 469.4 125.843 468.889 125.817C468.378 125.791 467.945 125.772 467.607 125.772H465.451Z" fill="white"/>
</svg>
